<?xml version="1.0" encoding="UTF-8" standalone="no"?>
<!DOCTYPE svg PUBLIC "-//W3C//DTD SVG 1.1//EN" "http://www.w3.org/Graphics/SVG/1.1/DTD/svg11.dtd">
<svg width="100%" height="100%" viewBox="0 0 591 591" version="1.1" xmlns="http://www.w3.org/2000/svg" xmlns:xlink="http://www.w3.org/1999/xlink" xml:space="preserve" xmlns:serif="http://www.serif.com/" style="fill-rule:evenodd;clip-rule:evenodd;stroke-linejoin:round;stroke-miterlimit:2;">
    <g transform="matrix(5.38901,0,0,5.38901,294.733,-5.32907e-14)">
        <path d="M0,58.795C16.236,58.795 29.398,45.633 29.398,29.399C29.398,13.162 16.236,0 0,0C-16.234,0 -29.397,13.162 -29.397,29.399C-29.397,45.633 -16.234,58.795 0,58.795" style="fill:white;fill-rule:nonzero;"/>
    </g>
    <g transform="matrix(5.38901,0,0,5.38901,354.412,367.037)">
        <path d="M0,28.17L0.308,21.795L15.828,11.659L17.589,23.84L0,28.17ZM25.078,6.385L14.179,-13.306C7.702,-6.867 -1.221,-2.887 -11.074,-2.887C-20.741,-2.887 -29.507,-6.723 -35.951,-12.946L-46.975,5.992L-50.979,32.979L-11.01,41.476L29.032,33.024L25.078,6.385Z" style="fill:white;fill-rule:nonzero;"/>
    </g>
</svg>
